G04 #@! TF.FileFunction,Soldermask,Top*
%FSLAX46Y46*%
G04 Gerber Fmt 4.6, Leading zero omitted, Abs format (unit mm)*
G04 Created by KiCad (PCBNEW 4.0.7) date Tuesday, 06 '06e' March '06e' 2018, 22:38:06*
%MOMM*%
%LPD*%
G01*
G04 APERTURE LIST*
%ADD10C,0.100000*%
%ADD11R,1.600000X1.150000*%
%ADD12R,2.350000X1.900000*%
%ADD13R,1.200000X1.150000*%
%ADD14R,2.900000X2.700000*%
%ADD15O,2.398980X2.398980*%
%ADD16R,2.398980X2.398980*%
%ADD17R,1.200000X1.300000*%
%ADD18R,1.300000X0.900000*%
%ADD19R,0.900000X1.300000*%
%ADD20O,2.000000X2.000000*%
%ADD21C,3.150000*%
%ADD22R,2.100000X2.100000*%
%ADD23O,2.100000X2.100000*%
%ADD24C,2.800000*%
%ADD25R,2.800000X2.800000*%
%ADD26O,4.400500X2.899360*%
%ADD27C,4.464000*%
%ADD28C,2.900000*%
%ADD29C,2.100000*%
G04 APERTURE END LIST*
D10*
D11*
X168550000Y-118500000D03*
X166650000Y-118500000D03*
D12*
X133525000Y-102650000D03*
X130775000Y-102650000D03*
D13*
X134200000Y-99950000D03*
X132700000Y-99950000D03*
D14*
X139250000Y-100000000D03*
X143550000Y-100000000D03*
X139250000Y-123400000D03*
X143550000Y-123400000D03*
D15*
X93700000Y-133440000D03*
D16*
X93700000Y-130900000D03*
D15*
X93700000Y-123840000D03*
D16*
X93700000Y-121300000D03*
D17*
X157450000Y-106900000D03*
X159350000Y-106900000D03*
X158400000Y-104900000D03*
X157650000Y-118500000D03*
X159550000Y-118500000D03*
X158600000Y-116500000D03*
D18*
X159900000Y-123350000D03*
X159900000Y-124850000D03*
X157600000Y-123350000D03*
X157600000Y-124850000D03*
X98900000Y-133150000D03*
X98900000Y-131650000D03*
X157400000Y-108750000D03*
X157400000Y-110250000D03*
X157600000Y-119850000D03*
X157600000Y-121350000D03*
D19*
X96100000Y-149050000D03*
X97600000Y-149050000D03*
X163550000Y-118550000D03*
X165050000Y-118550000D03*
D20*
X148450000Y-112500000D03*
X150990000Y-112500000D03*
X153530000Y-112500000D03*
X153530000Y-104880000D03*
X150990000Y-104880000D03*
X148450000Y-104880000D03*
X148450000Y-123950000D03*
X150990000Y-123950000D03*
X153530000Y-123950000D03*
X153530000Y-116330000D03*
X150990000Y-116330000D03*
X148450000Y-116330000D03*
X97750000Y-139050000D03*
X95210000Y-139050000D03*
X92670000Y-139050000D03*
X92670000Y-146670000D03*
X95210000Y-146670000D03*
X97750000Y-146670000D03*
D15*
X165100000Y-108080000D03*
D16*
X165100000Y-115700000D03*
D15*
X165100000Y-113160000D03*
X165100000Y-110620000D03*
D21*
X163000000Y-153000000D03*
X105000000Y-153000000D03*
X163000000Y-130000000D03*
D22*
X109870000Y-131270000D03*
D23*
X109870000Y-128730000D03*
X112410000Y-131270000D03*
X112410000Y-128730000D03*
X114950000Y-131270000D03*
X114950000Y-128730000D03*
X117490000Y-131270000D03*
X117490000Y-128730000D03*
X120030000Y-131270000D03*
X120030000Y-128730000D03*
X122570000Y-131270000D03*
X122570000Y-128730000D03*
X125110000Y-131270000D03*
X125110000Y-128730000D03*
X127650000Y-131270000D03*
X127650000Y-128730000D03*
X130190000Y-131270000D03*
X130190000Y-128730000D03*
X132730000Y-131270000D03*
X132730000Y-128730000D03*
X135270000Y-131270000D03*
X135270000Y-128730000D03*
X137810000Y-131270000D03*
X137810000Y-128730000D03*
X140350000Y-131270000D03*
X140350000Y-128730000D03*
X142890000Y-131270000D03*
X142890000Y-128730000D03*
X145430000Y-131270000D03*
X145430000Y-128730000D03*
X147970000Y-131270000D03*
X147970000Y-128730000D03*
X150510000Y-131270000D03*
X150510000Y-128730000D03*
X153050000Y-131270000D03*
X153050000Y-128730000D03*
X155590000Y-131270000D03*
X155590000Y-128730000D03*
X158130000Y-131270000D03*
X158130000Y-128730000D03*
D21*
X105000000Y-130000000D03*
D24*
X95000000Y-112000000D03*
D25*
X95000000Y-108500000D03*
D26*
X100699260Y-98600000D03*
X122700740Y-98600000D03*
D27*
X94000000Y-97000000D03*
X94000000Y-153000000D03*
X163000000Y-97000000D03*
D28*
X103300000Y-112000000D03*
X103300000Y-117000000D03*
X132700000Y-106800000D03*
X132700000Y-122200000D03*
D29*
X138800000Y-118100000D03*
X138800000Y-115560000D03*
X138800000Y-113020000D03*
X138800000Y-110480000D03*
X143880000Y-118100000D03*
X143880000Y-115560000D03*
X143880000Y-113020000D03*
X143880000Y-110480000D03*
X143880000Y-105400000D03*
X138800000Y-105400000D03*
M02*
