G04 #@! TF.FileFunction,Copper,L2,Bot,Signal*
%FSLAX46Y46*%
G04 Gerber Fmt 4.6, Leading zero omitted, Abs format (unit mm)*
G04 Created by KiCad (PCBNEW 4.0.7) date Tuesday, 06 '06e' March '06e' 2018, 22:38:06*
%MOMM*%
%LPD*%
G01*
G04 APERTURE LIST*
%ADD10C,0.100000*%
%ADD11O,1.998980X1.998980*%
%ADD12R,1.998980X1.998980*%
%ADD13O,1.600000X1.600000*%
%ADD14C,2.750000*%
%ADD15R,1.700000X1.700000*%
%ADD16O,1.700000X1.700000*%
%ADD17C,2.400000*%
%ADD18R,2.400000X2.400000*%
%ADD19O,4.000500X2.499360*%
%ADD20C,4.064000*%
%ADD21C,2.500000*%
%ADD22C,1.700000*%
%ADD23C,1.000000*%
%ADD24C,0.500000*%
%ADD25C,1.000000*%
%ADD26C,0.254000*%
G04 APERTURE END LIST*
D10*
D11*
X93700000Y-133440000D03*
D12*
X93700000Y-130900000D03*
D11*
X93700000Y-123840000D03*
D12*
X93700000Y-121300000D03*
D13*
X148450000Y-112500000D03*
X150990000Y-112500000D03*
X153530000Y-112500000D03*
X153530000Y-104880000D03*
X150990000Y-104880000D03*
X148450000Y-104880000D03*
X148450000Y-123950000D03*
X150990000Y-123950000D03*
X153530000Y-123950000D03*
X153530000Y-116330000D03*
X150990000Y-116330000D03*
X148450000Y-116330000D03*
X97750000Y-139050000D03*
X95210000Y-139050000D03*
X92670000Y-139050000D03*
X92670000Y-146670000D03*
X95210000Y-146670000D03*
X97750000Y-146670000D03*
D11*
X165100000Y-108080000D03*
D12*
X165100000Y-115700000D03*
D11*
X165100000Y-113160000D03*
X165100000Y-110620000D03*
D14*
X163000000Y-153000000D03*
X105000000Y-153000000D03*
X163000000Y-130000000D03*
D15*
X109870000Y-131270000D03*
D16*
X109870000Y-128730000D03*
X112410000Y-131270000D03*
X112410000Y-128730000D03*
X114950000Y-131270000D03*
X114950000Y-128730000D03*
X117490000Y-131270000D03*
X117490000Y-128730000D03*
X120030000Y-131270000D03*
X120030000Y-128730000D03*
X122570000Y-131270000D03*
X122570000Y-128730000D03*
X125110000Y-131270000D03*
X125110000Y-128730000D03*
X127650000Y-131270000D03*
X127650000Y-128730000D03*
X130190000Y-131270000D03*
X130190000Y-128730000D03*
X132730000Y-131270000D03*
X132730000Y-128730000D03*
X135270000Y-131270000D03*
X135270000Y-128730000D03*
X137810000Y-131270000D03*
X137810000Y-128730000D03*
X140350000Y-131270000D03*
X140350000Y-128730000D03*
X142890000Y-131270000D03*
X142890000Y-128730000D03*
X145430000Y-131270000D03*
X145430000Y-128730000D03*
X147970000Y-131270000D03*
X147970000Y-128730000D03*
X150510000Y-131270000D03*
X150510000Y-128730000D03*
X153050000Y-131270000D03*
X153050000Y-128730000D03*
X155590000Y-131270000D03*
X155590000Y-128730000D03*
X158130000Y-131270000D03*
X158130000Y-128730000D03*
D14*
X105000000Y-130000000D03*
D17*
X95000000Y-112000000D03*
D18*
X95000000Y-108500000D03*
D19*
X100699260Y-98600000D03*
X122700740Y-98600000D03*
D20*
X94000000Y-97000000D03*
X94000000Y-153000000D03*
X163000000Y-97000000D03*
D21*
X103300000Y-112000000D03*
X103300000Y-117000000D03*
X132700000Y-106800000D03*
X132700000Y-122200000D03*
D22*
X138800000Y-118100000D03*
X138800000Y-115560000D03*
X138800000Y-113020000D03*
X138800000Y-110480000D03*
X143880000Y-118100000D03*
X143880000Y-115560000D03*
X143880000Y-113020000D03*
X143880000Y-110480000D03*
X143880000Y-105400000D03*
X138800000Y-105400000D03*
D23*
X161100000Y-121300000D03*
D24*
X150990000Y-104880000D02*
X150990000Y-103910000D01*
X167100000Y-115700000D02*
X165100000Y-115700000D01*
X167800000Y-115000000D02*
X167100000Y-115700000D01*
X167800000Y-104100000D02*
X167800000Y-115000000D01*
X166700000Y-103000000D02*
X167800000Y-104100000D01*
X151900000Y-103000000D02*
X166700000Y-103000000D01*
X150990000Y-103910000D02*
X151900000Y-103000000D01*
X138800000Y-118100000D02*
X139200000Y-118100000D01*
X139200000Y-118100000D02*
X141300000Y-120200000D01*
X150990000Y-118010000D02*
X150990000Y-116330000D01*
X148800000Y-120200000D02*
X150990000Y-118010000D01*
X141300000Y-120200000D02*
X148800000Y-120200000D01*
X138800000Y-105400000D02*
X141200000Y-103000000D01*
X150990000Y-103790000D02*
X150990000Y-104880000D01*
X150200000Y-103000000D02*
X150990000Y-103790000D01*
X141200000Y-103000000D02*
X150200000Y-103000000D01*
D25*
X93700000Y-123840000D02*
X121160000Y-123840000D01*
X121160000Y-123840000D02*
X129440000Y-115560000D01*
X129440000Y-115560000D02*
X138800000Y-115560000D01*
X93700000Y-121300000D02*
X116800000Y-121300000D01*
X116800000Y-121300000D02*
X125080000Y-113020000D01*
X125080000Y-113020000D02*
X138800000Y-113020000D01*
D24*
X148450000Y-112500000D02*
X148450000Y-113250000D01*
X148450000Y-113250000D02*
X149600000Y-114400000D01*
X149600000Y-114400000D02*
X158600000Y-114400000D01*
X158600000Y-114400000D02*
X161100000Y-116900000D01*
X161100000Y-116900000D02*
X161100000Y-121300000D01*
D26*
G36*
X168965000Y-156865000D02*
X90435000Y-156865000D01*
X90435000Y-154898121D01*
X92281484Y-154898121D01*
X92506154Y-155272168D01*
X93489388Y-155670880D01*
X94550357Y-155662975D01*
X95493846Y-155272168D01*
X95718516Y-154898121D01*
X94000000Y-153179605D01*
X92281484Y-154898121D01*
X90435000Y-154898121D01*
X90435000Y-152489388D01*
X91329120Y-152489388D01*
X91337025Y-153550357D01*
X91727832Y-154493846D01*
X92101879Y-154718516D01*
X93820395Y-153000000D01*
X94179605Y-153000000D01*
X95898121Y-154718516D01*
X96272168Y-154493846D01*
X96670880Y-153510612D01*
X96670042Y-153398060D01*
X102989652Y-153398060D01*
X103295012Y-154137086D01*
X103859940Y-154703001D01*
X104598432Y-155009650D01*
X105398060Y-155010348D01*
X106137086Y-154704988D01*
X106703001Y-154140060D01*
X107009650Y-153401568D01*
X107009653Y-153398060D01*
X160989652Y-153398060D01*
X161295012Y-154137086D01*
X161859940Y-154703001D01*
X162598432Y-155009650D01*
X163398060Y-155010348D01*
X164137086Y-154704988D01*
X164703001Y-154140060D01*
X165009650Y-153401568D01*
X165010348Y-152601940D01*
X164704988Y-151862914D01*
X164140060Y-151296999D01*
X163401568Y-150990350D01*
X162601940Y-150989652D01*
X161862914Y-151295012D01*
X161296999Y-151859940D01*
X160990350Y-152598432D01*
X160989652Y-153398060D01*
X107009653Y-153398060D01*
X107010348Y-152601940D01*
X106704988Y-151862914D01*
X106140060Y-151296999D01*
X105401568Y-150990350D01*
X104601940Y-150989652D01*
X103862914Y-151295012D01*
X103296999Y-151859940D01*
X102990350Y-152598432D01*
X102989652Y-153398060D01*
X96670042Y-153398060D01*
X96662975Y-152449643D01*
X96272168Y-151506154D01*
X95898121Y-151281484D01*
X94179605Y-153000000D01*
X93820395Y-153000000D01*
X92101879Y-151281484D01*
X91727832Y-151506154D01*
X91329120Y-152489388D01*
X90435000Y-152489388D01*
X90435000Y-151101879D01*
X92281484Y-151101879D01*
X94000000Y-152820395D01*
X95718516Y-151101879D01*
X95493846Y-150727832D01*
X94510612Y-150329120D01*
X93449643Y-150337025D01*
X92506154Y-150727832D01*
X92281484Y-151101879D01*
X90435000Y-151101879D01*
X90435000Y-147019041D01*
X91278086Y-147019041D01*
X91517611Y-147525134D01*
X91932577Y-147901041D01*
X92320961Y-148061904D01*
X92543000Y-147939915D01*
X92543000Y-146797000D01*
X91399371Y-146797000D01*
X91278086Y-147019041D01*
X90435000Y-147019041D01*
X90435000Y-146320959D01*
X91278086Y-146320959D01*
X91399371Y-146543000D01*
X92543000Y-146543000D01*
X92543000Y-145400085D01*
X92797000Y-145400085D01*
X92797000Y-146543000D01*
X92817000Y-146543000D01*
X92817000Y-146797000D01*
X92797000Y-146797000D01*
X92797000Y-147939915D01*
X93019039Y-148061904D01*
X93407423Y-147901041D01*
X93822389Y-147525134D01*
X93925014Y-147308297D01*
X94195302Y-147712811D01*
X94660849Y-148023880D01*
X95210000Y-148133113D01*
X95759151Y-148023880D01*
X96224698Y-147712811D01*
X96480000Y-147330725D01*
X96735302Y-147712811D01*
X97200849Y-148023880D01*
X97750000Y-148133113D01*
X98299151Y-148023880D01*
X98764698Y-147712811D01*
X99075767Y-147247264D01*
X99185000Y-146698113D01*
X99185000Y-146641887D01*
X99075767Y-146092736D01*
X98764698Y-145627189D01*
X98299151Y-145316120D01*
X97750000Y-145206887D01*
X97200849Y-145316120D01*
X96735302Y-145627189D01*
X96480000Y-146009275D01*
X96224698Y-145627189D01*
X95759151Y-145316120D01*
X95210000Y-145206887D01*
X94660849Y-145316120D01*
X94195302Y-145627189D01*
X93925014Y-146031703D01*
X93822389Y-145814866D01*
X93407423Y-145438959D01*
X93019039Y-145278096D01*
X92797000Y-145400085D01*
X92543000Y-145400085D01*
X92320961Y-145278096D01*
X91932577Y-145438959D01*
X91517611Y-145814866D01*
X91278086Y-146320959D01*
X90435000Y-146320959D01*
X90435000Y-145844606D01*
X92352606Y-143927000D01*
X100200000Y-143927000D01*
X100249410Y-143916994D01*
X100289803Y-143889803D01*
X102289803Y-141889803D01*
X102317666Y-141847789D01*
X102327000Y-141800000D01*
X102327000Y-130398060D01*
X102989652Y-130398060D01*
X103295012Y-131137086D01*
X103859940Y-131703001D01*
X104598432Y-132009650D01*
X105398060Y-132010348D01*
X106137086Y-131704988D01*
X106703001Y-131140060D01*
X107001996Y-130420000D01*
X108372560Y-130420000D01*
X108372560Y-132120000D01*
X108416838Y-132355317D01*
X108555910Y-132571441D01*
X108768110Y-132716431D01*
X109020000Y-132767440D01*
X110720000Y-132767440D01*
X110955317Y-132723162D01*
X111171441Y-132584090D01*
X111316431Y-132371890D01*
X111330086Y-132304459D01*
X111359946Y-132349147D01*
X111841715Y-132671054D01*
X112410000Y-132784093D01*
X112978285Y-132671054D01*
X113460054Y-132349147D01*
X113680000Y-132019974D01*
X113899946Y-132349147D01*
X114381715Y-132671054D01*
X114950000Y-132784093D01*
X115518285Y-132671054D01*
X116000054Y-132349147D01*
X116220000Y-132019974D01*
X116439946Y-132349147D01*
X116921715Y-132671054D01*
X117490000Y-132784093D01*
X118058285Y-132671054D01*
X118540054Y-132349147D01*
X118767702Y-132008447D01*
X118834817Y-132151358D01*
X119263076Y-132541645D01*
X119673110Y-132711476D01*
X119903000Y-132590155D01*
X119903000Y-131397000D01*
X119883000Y-131397000D01*
X119883000Y-131143000D01*
X119903000Y-131143000D01*
X119903000Y-131123000D01*
X120157000Y-131123000D01*
X120157000Y-131143000D01*
X120177000Y-131143000D01*
X120177000Y-131397000D01*
X120157000Y-131397000D01*
X120157000Y-132590155D01*
X120386890Y-132711476D01*
X120796924Y-132541645D01*
X121225183Y-132151358D01*
X121292298Y-132008447D01*
X121519946Y-132349147D01*
X122001715Y-132671054D01*
X122570000Y-132784093D01*
X123138285Y-132671054D01*
X123620054Y-132349147D01*
X123840000Y-132019974D01*
X124059946Y-132349147D01*
X124541715Y-132671054D01*
X125110000Y-132784093D01*
X125678285Y-132671054D01*
X126160054Y-132349147D01*
X126380000Y-132019974D01*
X126599946Y-132349147D01*
X127081715Y-132671054D01*
X127650000Y-132784093D01*
X128218285Y-132671054D01*
X128700054Y-132349147D01*
X128920000Y-132019974D01*
X129139946Y-132349147D01*
X129621715Y-132671054D01*
X130190000Y-132784093D01*
X130758285Y-132671054D01*
X131240054Y-132349147D01*
X131460000Y-132019974D01*
X131679946Y-132349147D01*
X132161715Y-132671054D01*
X132730000Y-132784093D01*
X133298285Y-132671054D01*
X133780054Y-132349147D01*
X134000000Y-132019974D01*
X134219946Y-132349147D01*
X134701715Y-132671054D01*
X135270000Y-132784093D01*
X135838285Y-132671054D01*
X136320054Y-132349147D01*
X136540000Y-132019974D01*
X136759946Y-132349147D01*
X137241715Y-132671054D01*
X137810000Y-132784093D01*
X138378285Y-132671054D01*
X138860054Y-132349147D01*
X139087702Y-132008447D01*
X139154817Y-132151358D01*
X139583076Y-132541645D01*
X139993110Y-132711476D01*
X140223000Y-132590155D01*
X140223000Y-131397000D01*
X140203000Y-131397000D01*
X140203000Y-131143000D01*
X140223000Y-131143000D01*
X140223000Y-131123000D01*
X140477000Y-131123000D01*
X140477000Y-131143000D01*
X140497000Y-131143000D01*
X140497000Y-131397000D01*
X140477000Y-131397000D01*
X140477000Y-132590155D01*
X140706890Y-132711476D01*
X141116924Y-132541645D01*
X141545183Y-132151358D01*
X141612298Y-132008447D01*
X141839946Y-132349147D01*
X142321715Y-132671054D01*
X142890000Y-132784093D01*
X143458285Y-132671054D01*
X143940054Y-132349147D01*
X144160000Y-132019974D01*
X144379946Y-132349147D01*
X144861715Y-132671054D01*
X145430000Y-132784093D01*
X145998285Y-132671054D01*
X146480054Y-132349147D01*
X146700000Y-132019974D01*
X146919946Y-132349147D01*
X147401715Y-132671054D01*
X147970000Y-132784093D01*
X148538285Y-132671054D01*
X149020054Y-132349147D01*
X149240000Y-132019974D01*
X149459946Y-132349147D01*
X149941715Y-132671054D01*
X150510000Y-132784093D01*
X151078285Y-132671054D01*
X151560054Y-132349147D01*
X151780000Y-132019974D01*
X151999946Y-132349147D01*
X152481715Y-132671054D01*
X153050000Y-132784093D01*
X153618285Y-132671054D01*
X154100054Y-132349147D01*
X154320000Y-132019974D01*
X154539946Y-132349147D01*
X155021715Y-132671054D01*
X155590000Y-132784093D01*
X156158285Y-132671054D01*
X156640054Y-132349147D01*
X156867702Y-132008447D01*
X156934817Y-132151358D01*
X157363076Y-132541645D01*
X157773110Y-132711476D01*
X158003000Y-132590155D01*
X158003000Y-131397000D01*
X158257000Y-131397000D01*
X158257000Y-132590155D01*
X158486890Y-132711476D01*
X158896924Y-132541645D01*
X159325183Y-132151358D01*
X159571486Y-131626892D01*
X159450819Y-131397000D01*
X158257000Y-131397000D01*
X158003000Y-131397000D01*
X157983000Y-131397000D01*
X157983000Y-131143000D01*
X158003000Y-131143000D01*
X158003000Y-131123000D01*
X158257000Y-131123000D01*
X158257000Y-131143000D01*
X159450819Y-131143000D01*
X159571486Y-130913108D01*
X159329606Y-130398060D01*
X160989652Y-130398060D01*
X161295012Y-131137086D01*
X161859940Y-131703001D01*
X162598432Y-132009650D01*
X163398060Y-132010348D01*
X164137086Y-131704988D01*
X164703001Y-131140060D01*
X165009650Y-130401568D01*
X165010348Y-129601940D01*
X164704988Y-128862914D01*
X164140060Y-128296999D01*
X163401568Y-127990350D01*
X162601940Y-127989652D01*
X161862914Y-128295012D01*
X161296999Y-128859940D01*
X160990350Y-129598432D01*
X160989652Y-130398060D01*
X159329606Y-130398060D01*
X159325183Y-130388642D01*
X158896924Y-129998355D01*
X158896899Y-129998345D01*
X159180054Y-129809147D01*
X159501961Y-129327378D01*
X159615000Y-128759093D01*
X159615000Y-128700907D01*
X159501961Y-128132622D01*
X159180054Y-127650853D01*
X158698285Y-127328946D01*
X158130000Y-127215907D01*
X157561715Y-127328946D01*
X157079946Y-127650853D01*
X156860000Y-127980026D01*
X156640054Y-127650853D01*
X156158285Y-127328946D01*
X155590000Y-127215907D01*
X155021715Y-127328946D01*
X154539946Y-127650853D01*
X154320000Y-127980026D01*
X154100054Y-127650853D01*
X153618285Y-127328946D01*
X153050000Y-127215907D01*
X152481715Y-127328946D01*
X151999946Y-127650853D01*
X151772298Y-127991553D01*
X151705183Y-127848642D01*
X151276924Y-127458355D01*
X150866890Y-127288524D01*
X150637000Y-127409845D01*
X150637000Y-128603000D01*
X150657000Y-128603000D01*
X150657000Y-128857000D01*
X150637000Y-128857000D01*
X150637000Y-128877000D01*
X150383000Y-128877000D01*
X150383000Y-128857000D01*
X150363000Y-128857000D01*
X150363000Y-128603000D01*
X150383000Y-128603000D01*
X150383000Y-127409845D01*
X150153110Y-127288524D01*
X149743076Y-127458355D01*
X149314817Y-127848642D01*
X149247702Y-127991553D01*
X149020054Y-127650853D01*
X148538285Y-127328946D01*
X147970000Y-127215907D01*
X147401715Y-127328946D01*
X146919946Y-127650853D01*
X146692298Y-127991553D01*
X146625183Y-127848642D01*
X146196924Y-127458355D01*
X145786890Y-127288524D01*
X145557000Y-127409845D01*
X145557000Y-128603000D01*
X145577000Y-128603000D01*
X145577000Y-128857000D01*
X145557000Y-128857000D01*
X145557000Y-128877000D01*
X145303000Y-128877000D01*
X145303000Y-128857000D01*
X145283000Y-128857000D01*
X145283000Y-128603000D01*
X145303000Y-128603000D01*
X145303000Y-127409845D01*
X145073110Y-127288524D01*
X144663076Y-127458355D01*
X144234817Y-127848642D01*
X144167702Y-127991553D01*
X143940054Y-127650853D01*
X143458285Y-127328946D01*
X142890000Y-127215907D01*
X142321715Y-127328946D01*
X141839946Y-127650853D01*
X141620000Y-127980026D01*
X141400054Y-127650853D01*
X140918285Y-127328946D01*
X140350000Y-127215907D01*
X139781715Y-127328946D01*
X139299946Y-127650853D01*
X139080000Y-127980026D01*
X138860054Y-127650853D01*
X138378285Y-127328946D01*
X137810000Y-127215907D01*
X137241715Y-127328946D01*
X136759946Y-127650853D01*
X136540000Y-127980026D01*
X136320054Y-127650853D01*
X135838285Y-127328946D01*
X135270000Y-127215907D01*
X134701715Y-127328946D01*
X134219946Y-127650853D01*
X133992298Y-127991553D01*
X133925183Y-127848642D01*
X133496924Y-127458355D01*
X133086890Y-127288524D01*
X132857000Y-127409845D01*
X132857000Y-128603000D01*
X132877000Y-128603000D01*
X132877000Y-128857000D01*
X132857000Y-128857000D01*
X132857000Y-128877000D01*
X132603000Y-128877000D01*
X132603000Y-128857000D01*
X132583000Y-128857000D01*
X132583000Y-128603000D01*
X132603000Y-128603000D01*
X132603000Y-127409845D01*
X132373110Y-127288524D01*
X131963076Y-127458355D01*
X131534817Y-127848642D01*
X131467702Y-127991553D01*
X131240054Y-127650853D01*
X130758285Y-127328946D01*
X130190000Y-127215907D01*
X129621715Y-127328946D01*
X129139946Y-127650853D01*
X128920000Y-127980026D01*
X128700054Y-127650853D01*
X128218285Y-127328946D01*
X127650000Y-127215907D01*
X127081715Y-127328946D01*
X126599946Y-127650853D01*
X126372298Y-127991553D01*
X126305183Y-127848642D01*
X125876924Y-127458355D01*
X125466890Y-127288524D01*
X125237000Y-127409845D01*
X125237000Y-128603000D01*
X125257000Y-128603000D01*
X125257000Y-128857000D01*
X125237000Y-128857000D01*
X125237000Y-128877000D01*
X124983000Y-128877000D01*
X124983000Y-128857000D01*
X124963000Y-128857000D01*
X124963000Y-128603000D01*
X124983000Y-128603000D01*
X124983000Y-127409845D01*
X124753110Y-127288524D01*
X124343076Y-127458355D01*
X123914817Y-127848642D01*
X123847702Y-127991553D01*
X123620054Y-127650853D01*
X123138285Y-127328946D01*
X122570000Y-127215907D01*
X122001715Y-127328946D01*
X121519946Y-127650853D01*
X121300000Y-127980026D01*
X121080054Y-127650853D01*
X120598285Y-127328946D01*
X120030000Y-127215907D01*
X119461715Y-127328946D01*
X118979946Y-127650853D01*
X118760000Y-127980026D01*
X118540054Y-127650853D01*
X118058285Y-127328946D01*
X117490000Y-127215907D01*
X116921715Y-127328946D01*
X116439946Y-127650853D01*
X116212298Y-127991553D01*
X116145183Y-127848642D01*
X115716924Y-127458355D01*
X115306890Y-127288524D01*
X115077000Y-127409845D01*
X115077000Y-128603000D01*
X115097000Y-128603000D01*
X115097000Y-128857000D01*
X115077000Y-128857000D01*
X115077000Y-128877000D01*
X114823000Y-128877000D01*
X114823000Y-128857000D01*
X114803000Y-128857000D01*
X114803000Y-128603000D01*
X114823000Y-128603000D01*
X114823000Y-127409845D01*
X114593110Y-127288524D01*
X114183076Y-127458355D01*
X113754817Y-127848642D01*
X113687702Y-127991553D01*
X113460054Y-127650853D01*
X112978285Y-127328946D01*
X112410000Y-127215907D01*
X111841715Y-127328946D01*
X111359946Y-127650853D01*
X111140000Y-127980026D01*
X110920054Y-127650853D01*
X110438285Y-127328946D01*
X109870000Y-127215907D01*
X109301715Y-127328946D01*
X108819946Y-127650853D01*
X108498039Y-128132622D01*
X108385000Y-128700907D01*
X108385000Y-128759093D01*
X108498039Y-129327378D01*
X108819946Y-129809147D01*
X108821179Y-129809971D01*
X108784683Y-129816838D01*
X108568559Y-129955910D01*
X108423569Y-130168110D01*
X108372560Y-130420000D01*
X107001996Y-130420000D01*
X107009650Y-130401568D01*
X107010348Y-129601940D01*
X106704988Y-128862914D01*
X106140060Y-128296999D01*
X105401568Y-127990350D01*
X104601940Y-127989652D01*
X103862914Y-128295012D01*
X103296999Y-128859940D01*
X102990350Y-129598432D01*
X102989652Y-130398060D01*
X102327000Y-130398060D01*
X102327000Y-127052606D01*
X104152606Y-125227000D01*
X123000000Y-125227000D01*
X123049410Y-125216994D01*
X123089803Y-125189803D01*
X125706301Y-122573305D01*
X130814674Y-122573305D01*
X131101043Y-123266372D01*
X131630839Y-123797093D01*
X132323405Y-124084672D01*
X133073305Y-124085326D01*
X133468858Y-123921887D01*
X147015000Y-123921887D01*
X147015000Y-123978113D01*
X147124233Y-124527264D01*
X147435302Y-124992811D01*
X147900849Y-125303880D01*
X148450000Y-125413113D01*
X148999151Y-125303880D01*
X149464698Y-124992811D01*
X149734986Y-124588297D01*
X149837611Y-124805134D01*
X150252577Y-125181041D01*
X150640961Y-125341904D01*
X150863000Y-125219915D01*
X150863000Y-124077000D01*
X150843000Y-124077000D01*
X150843000Y-123823000D01*
X150863000Y-123823000D01*
X150863000Y-122680085D01*
X151117000Y-122680085D01*
X151117000Y-123823000D01*
X151137000Y-123823000D01*
X151137000Y-124077000D01*
X151117000Y-124077000D01*
X151117000Y-125219915D01*
X151339039Y-125341904D01*
X151727423Y-125181041D01*
X152142389Y-124805134D01*
X152245014Y-124588297D01*
X152515302Y-124992811D01*
X152980849Y-125303880D01*
X153530000Y-125413113D01*
X154079151Y-125303880D01*
X154544698Y-124992811D01*
X154855767Y-124527264D01*
X154965000Y-123978113D01*
X154965000Y-123921887D01*
X154855767Y-123372736D01*
X154544698Y-122907189D01*
X154079151Y-122596120D01*
X153530000Y-122486887D01*
X152980849Y-122596120D01*
X152515302Y-122907189D01*
X152245014Y-123311703D01*
X152142389Y-123094866D01*
X151727423Y-122718959D01*
X151339039Y-122558096D01*
X151117000Y-122680085D01*
X150863000Y-122680085D01*
X150640961Y-122558096D01*
X150252577Y-122718959D01*
X149837611Y-123094866D01*
X149734986Y-123311703D01*
X149464698Y-122907189D01*
X148999151Y-122596120D01*
X148450000Y-122486887D01*
X147900849Y-122596120D01*
X147435302Y-122907189D01*
X147124233Y-123372736D01*
X147015000Y-123921887D01*
X133468858Y-123921887D01*
X133766372Y-123798957D01*
X134297093Y-123269161D01*
X134584672Y-122576595D01*
X134585326Y-121826695D01*
X134298957Y-121133628D01*
X133769161Y-120602907D01*
X133076595Y-120315328D01*
X132326695Y-120314674D01*
X131633628Y-120601043D01*
X131102907Y-121130839D01*
X130815328Y-121823405D01*
X130814674Y-122573305D01*
X125706301Y-122573305D01*
X128189803Y-120089803D01*
X128217666Y-120047789D01*
X128227000Y-120000000D01*
X128227000Y-118378132D01*
X129910132Y-116695000D01*
X137373000Y-116695000D01*
X137373000Y-117664261D01*
X137315258Y-117803319D01*
X137314743Y-118394089D01*
X137373000Y-118535082D01*
X137373000Y-120700000D01*
X137381685Y-120746159D01*
X137408965Y-120788553D01*
X137450590Y-120816994D01*
X137500000Y-120827000D01*
X140676021Y-120827000D01*
X140961325Y-121017633D01*
X141300000Y-121085000D01*
X148799995Y-121085000D01*
X148800000Y-121085001D01*
X149082484Y-121028810D01*
X149138675Y-121017633D01*
X149425790Y-120825790D01*
X149425791Y-120825789D01*
X151615787Y-118635792D01*
X151615790Y-118635790D01*
X151807633Y-118348675D01*
X151857098Y-118100000D01*
X151875001Y-118010000D01*
X151875000Y-118009995D01*
X151875000Y-117459473D01*
X152004698Y-117372811D01*
X152260000Y-116990725D01*
X152515302Y-117372811D01*
X152980849Y-117683880D01*
X153530000Y-117793113D01*
X154079151Y-117683880D01*
X154544698Y-117372811D01*
X154855767Y-116907264D01*
X154965000Y-116358113D01*
X154965000Y-116301887D01*
X154855767Y-115752736D01*
X154544698Y-115287189D01*
X154541422Y-115285000D01*
X158233420Y-115285000D01*
X160215000Y-117266579D01*
X160215000Y-120579724D01*
X160138355Y-120656235D01*
X159965197Y-121073244D01*
X159964803Y-121524775D01*
X160137233Y-121942086D01*
X160456235Y-122261645D01*
X160873244Y-122434803D01*
X161324775Y-122435197D01*
X161742086Y-122262767D01*
X162061645Y-121943765D01*
X162234803Y-121526756D01*
X162235197Y-121075225D01*
X162062767Y-120657914D01*
X161985000Y-120580011D01*
X161985000Y-116900005D01*
X161985001Y-116900000D01*
X161917633Y-116561326D01*
X161917633Y-116561325D01*
X161725790Y-116274210D01*
X161725787Y-116274208D01*
X159225790Y-113774210D01*
X159219362Y-113769915D01*
X158938675Y-113582367D01*
X158882484Y-113571190D01*
X158600000Y-113514999D01*
X158599995Y-113515000D01*
X154563281Y-113515000D01*
X154855767Y-113077264D01*
X154965000Y-112528113D01*
X154965000Y-112471887D01*
X154855767Y-111922736D01*
X154544698Y-111457189D01*
X154079151Y-111146120D01*
X153530000Y-111036887D01*
X152980849Y-111146120D01*
X152515302Y-111457189D01*
X152245014Y-111861703D01*
X152142389Y-111644866D01*
X151727423Y-111268959D01*
X151339039Y-111108096D01*
X151117000Y-111230085D01*
X151117000Y-112373000D01*
X151137000Y-112373000D01*
X151137000Y-112627000D01*
X151117000Y-112627000D01*
X151117000Y-112647000D01*
X150863000Y-112647000D01*
X150863000Y-112627000D01*
X150843000Y-112627000D01*
X150843000Y-112373000D01*
X150863000Y-112373000D01*
X150863000Y-111230085D01*
X150640961Y-111108096D01*
X150252577Y-111268959D01*
X149837611Y-111644866D01*
X149734986Y-111861703D01*
X149464698Y-111457189D01*
X148999151Y-111146120D01*
X148450000Y-111036887D01*
X147900849Y-111146120D01*
X147435302Y-111457189D01*
X147124233Y-111922736D01*
X147015000Y-112471887D01*
X147015000Y-112528113D01*
X147124233Y-113077264D01*
X147435302Y-113542811D01*
X147735949Y-113743697D01*
X147788647Y-113822566D01*
X147824210Y-113875790D01*
X148906015Y-114957594D01*
X148450000Y-114866887D01*
X147900849Y-114976120D01*
X147435302Y-115287189D01*
X147124233Y-115752736D01*
X147015000Y-116301887D01*
X147015000Y-116358113D01*
X147124233Y-116907264D01*
X147435302Y-117372811D01*
X147900849Y-117683880D01*
X148450000Y-117793113D01*
X148999151Y-117683880D01*
X149464698Y-117372811D01*
X149720000Y-116990725D01*
X149975302Y-117372811D01*
X150105000Y-117459473D01*
X150105000Y-117643421D01*
X148433420Y-119315000D01*
X145327000Y-119315000D01*
X145327000Y-118487574D01*
X145364742Y-118396681D01*
X145365257Y-117805911D01*
X145327000Y-117713322D01*
X145327000Y-115947574D01*
X145364742Y-115856681D01*
X145365257Y-115265911D01*
X145327000Y-115173322D01*
X145327000Y-113407574D01*
X145364742Y-113316681D01*
X145365257Y-112725911D01*
X145327000Y-112633322D01*
X145327000Y-110867574D01*
X145364742Y-110776681D01*
X145365257Y-110185911D01*
X145327000Y-110093322D01*
X145327000Y-107699645D01*
X163510373Y-107699645D01*
X163629193Y-107953000D01*
X164973000Y-107953000D01*
X164973000Y-106609735D01*
X165227000Y-106609735D01*
X165227000Y-107953000D01*
X166570807Y-107953000D01*
X166689627Y-107699645D01*
X166423068Y-107120274D01*
X165955084Y-106687013D01*
X165480354Y-106490381D01*
X165227000Y-106609735D01*
X164973000Y-106609735D01*
X164719646Y-106490381D01*
X164244916Y-106687013D01*
X163776932Y-107120274D01*
X163510373Y-107699645D01*
X145327000Y-107699645D01*
X145327000Y-105787574D01*
X145364742Y-105696681D01*
X145365257Y-105105911D01*
X145327000Y-105013322D01*
X145327000Y-103885000D01*
X147403356Y-103885000D01*
X147124233Y-104302736D01*
X147015000Y-104851887D01*
X147015000Y-104908113D01*
X147124233Y-105457264D01*
X147435302Y-105922811D01*
X147900849Y-106233880D01*
X148450000Y-106343113D01*
X148999151Y-106233880D01*
X149464698Y-105922811D01*
X149720000Y-105540725D01*
X149975302Y-105922811D01*
X150440849Y-106233880D01*
X150990000Y-106343113D01*
X151539151Y-106233880D01*
X152004698Y-105922811D01*
X152260000Y-105540725D01*
X152515302Y-105922811D01*
X152980849Y-106233880D01*
X153530000Y-106343113D01*
X154079151Y-106233880D01*
X154544698Y-105922811D01*
X154855767Y-105457264D01*
X154965000Y-104908113D01*
X154965000Y-104851887D01*
X154855767Y-104302736D01*
X154576644Y-103885000D01*
X166333420Y-103885000D01*
X166915000Y-104466579D01*
X166915000Y-114633421D01*
X166746930Y-114801490D01*
X166746930Y-114700510D01*
X166702652Y-114465193D01*
X166563580Y-114249069D01*
X166397527Y-114135610D01*
X166610072Y-113817514D01*
X166734490Y-113192022D01*
X166734490Y-113127978D01*
X166610072Y-112502486D01*
X166255759Y-111972219D01*
X166132710Y-111890000D01*
X166255759Y-111807781D01*
X166610072Y-111277514D01*
X166734490Y-110652022D01*
X166734490Y-110587978D01*
X166610072Y-109962486D01*
X166255759Y-109432219D01*
X166106700Y-109332621D01*
X166423068Y-109039726D01*
X166689627Y-108460355D01*
X166570807Y-108207000D01*
X165227000Y-108207000D01*
X165227000Y-108227000D01*
X164973000Y-108227000D01*
X164973000Y-108207000D01*
X163629193Y-108207000D01*
X163510373Y-108460355D01*
X163776932Y-109039726D01*
X164093300Y-109332621D01*
X163944241Y-109432219D01*
X163589928Y-109962486D01*
X163465510Y-110587978D01*
X163465510Y-110652022D01*
X163589928Y-111277514D01*
X163944241Y-111807781D01*
X164067290Y-111890000D01*
X163944241Y-111972219D01*
X163589928Y-112502486D01*
X163465510Y-113127978D01*
X163465510Y-113192022D01*
X163589928Y-113817514D01*
X163803453Y-114137077D01*
X163649069Y-114236420D01*
X163504079Y-114448620D01*
X163453070Y-114700510D01*
X163453070Y-116699490D01*
X163497348Y-116934807D01*
X163636420Y-117150931D01*
X163848620Y-117295921D01*
X164100510Y-117346930D01*
X166099490Y-117346930D01*
X166334807Y-117302652D01*
X166550931Y-117163580D01*
X166695921Y-116951380D01*
X166746930Y-116699490D01*
X166746930Y-116585000D01*
X167099995Y-116585000D01*
X167100000Y-116585001D01*
X167382484Y-116528810D01*
X167438675Y-116517633D01*
X167725790Y-116325790D01*
X168425787Y-115625792D01*
X168425790Y-115625790D01*
X168617633Y-115338675D01*
X168685000Y-115000000D01*
X168685000Y-104100005D01*
X168685001Y-104100000D01*
X168617633Y-103761326D01*
X168617633Y-103761325D01*
X168425790Y-103474210D01*
X168425787Y-103474208D01*
X167325790Y-102374210D01*
X167038675Y-102182367D01*
X166982484Y-102171190D01*
X166700000Y-102114999D01*
X166699995Y-102115000D01*
X151900000Y-102115000D01*
X151561325Y-102182367D01*
X151274210Y-102374210D01*
X151274208Y-102374213D01*
X151050000Y-102598421D01*
X150825790Y-102374210D01*
X150538675Y-102182367D01*
X150482484Y-102171190D01*
X150200000Y-102114999D01*
X150199995Y-102115000D01*
X141200005Y-102115000D01*
X141200000Y-102114999D01*
X140861326Y-102182366D01*
X140861324Y-102182367D01*
X140861325Y-102182367D01*
X140574210Y-102374210D01*
X140574208Y-102374213D01*
X140175421Y-102773000D01*
X137500000Y-102773000D01*
X137453841Y-102781685D01*
X137411447Y-102808965D01*
X137383006Y-102850590D01*
X137373000Y-102900000D01*
X137373000Y-104964261D01*
X137315258Y-105103319D01*
X137314743Y-105694089D01*
X137373000Y-105835082D01*
X137373000Y-110044261D01*
X137315258Y-110183319D01*
X137314743Y-110774089D01*
X137373000Y-110915082D01*
X137373000Y-111885000D01*
X128227000Y-111885000D01*
X128227000Y-108133320D01*
X131546285Y-108133320D01*
X131675533Y-108426123D01*
X132375806Y-108694388D01*
X133125435Y-108674250D01*
X133724467Y-108426123D01*
X133853715Y-108133320D01*
X132700000Y-106979605D01*
X131546285Y-108133320D01*
X128227000Y-108133320D01*
X128227000Y-106475806D01*
X130805612Y-106475806D01*
X130825750Y-107225435D01*
X131073877Y-107824467D01*
X131366680Y-107953715D01*
X132520395Y-106800000D01*
X132879605Y-106800000D01*
X134033320Y-107953715D01*
X134326123Y-107824467D01*
X134594388Y-107124194D01*
X134574250Y-106374565D01*
X134326123Y-105775533D01*
X134033320Y-105646285D01*
X132879605Y-106800000D01*
X132520395Y-106800000D01*
X131366680Y-105646285D01*
X131073877Y-105775533D01*
X130805612Y-106475806D01*
X128227000Y-106475806D01*
X128227000Y-105466680D01*
X131546285Y-105466680D01*
X132700000Y-106620395D01*
X133853715Y-105466680D01*
X133724467Y-105173877D01*
X133024194Y-104905612D01*
X132274565Y-104925750D01*
X131675533Y-105173877D01*
X131546285Y-105466680D01*
X128227000Y-105466680D01*
X128227000Y-98898121D01*
X161281484Y-98898121D01*
X161506154Y-99272168D01*
X162489388Y-99670880D01*
X163550357Y-99662975D01*
X164493846Y-99272168D01*
X164718516Y-98898121D01*
X163000000Y-97179605D01*
X161281484Y-98898121D01*
X128227000Y-98898121D01*
X128227000Y-96489388D01*
X160329120Y-96489388D01*
X160337025Y-97550357D01*
X160727832Y-98493846D01*
X161101879Y-98718516D01*
X162820395Y-97000000D01*
X163179605Y-97000000D01*
X164898121Y-98718516D01*
X165272168Y-98493846D01*
X165670880Y-97510612D01*
X165662975Y-96449643D01*
X165272168Y-95506154D01*
X164898121Y-95281484D01*
X163179605Y-97000000D01*
X162820395Y-97000000D01*
X161101879Y-95281484D01*
X160727832Y-95506154D01*
X160329120Y-96489388D01*
X128227000Y-96489388D01*
X128227000Y-96052606D01*
X129177727Y-95101879D01*
X161281484Y-95101879D01*
X163000000Y-96820395D01*
X164718516Y-95101879D01*
X164493846Y-94727832D01*
X163510612Y-94329120D01*
X162449643Y-94337025D01*
X161506154Y-94727832D01*
X161281484Y-95101879D01*
X129177727Y-95101879D01*
X130444606Y-93835000D01*
X168965000Y-93835000D01*
X168965000Y-156865000D01*
X168965000Y-156865000D01*
G37*
X168965000Y-156865000D02*
X90435000Y-156865000D01*
X90435000Y-154898121D01*
X92281484Y-154898121D01*
X92506154Y-155272168D01*
X93489388Y-155670880D01*
X94550357Y-155662975D01*
X95493846Y-155272168D01*
X95718516Y-154898121D01*
X94000000Y-153179605D01*
X92281484Y-154898121D01*
X90435000Y-154898121D01*
X90435000Y-152489388D01*
X91329120Y-152489388D01*
X91337025Y-153550357D01*
X91727832Y-154493846D01*
X92101879Y-154718516D01*
X93820395Y-153000000D01*
X94179605Y-153000000D01*
X95898121Y-154718516D01*
X96272168Y-154493846D01*
X96670880Y-153510612D01*
X96670042Y-153398060D01*
X102989652Y-153398060D01*
X103295012Y-154137086D01*
X103859940Y-154703001D01*
X104598432Y-155009650D01*
X105398060Y-155010348D01*
X106137086Y-154704988D01*
X106703001Y-154140060D01*
X107009650Y-153401568D01*
X107009653Y-153398060D01*
X160989652Y-153398060D01*
X161295012Y-154137086D01*
X161859940Y-154703001D01*
X162598432Y-155009650D01*
X163398060Y-155010348D01*
X164137086Y-154704988D01*
X164703001Y-154140060D01*
X165009650Y-153401568D01*
X165010348Y-152601940D01*
X164704988Y-151862914D01*
X164140060Y-151296999D01*
X163401568Y-150990350D01*
X162601940Y-150989652D01*
X161862914Y-151295012D01*
X161296999Y-151859940D01*
X160990350Y-152598432D01*
X160989652Y-153398060D01*
X107009653Y-153398060D01*
X107010348Y-152601940D01*
X106704988Y-151862914D01*
X106140060Y-151296999D01*
X105401568Y-150990350D01*
X104601940Y-150989652D01*
X103862914Y-151295012D01*
X103296999Y-151859940D01*
X102990350Y-152598432D01*
X102989652Y-153398060D01*
X96670042Y-153398060D01*
X96662975Y-152449643D01*
X96272168Y-151506154D01*
X95898121Y-151281484D01*
X94179605Y-153000000D01*
X93820395Y-153000000D01*
X92101879Y-151281484D01*
X91727832Y-151506154D01*
X91329120Y-152489388D01*
X90435000Y-152489388D01*
X90435000Y-151101879D01*
X92281484Y-151101879D01*
X94000000Y-152820395D01*
X95718516Y-151101879D01*
X95493846Y-150727832D01*
X94510612Y-150329120D01*
X93449643Y-150337025D01*
X92506154Y-150727832D01*
X92281484Y-151101879D01*
X90435000Y-151101879D01*
X90435000Y-147019041D01*
X91278086Y-147019041D01*
X91517611Y-147525134D01*
X91932577Y-147901041D01*
X92320961Y-148061904D01*
X92543000Y-147939915D01*
X92543000Y-146797000D01*
X91399371Y-146797000D01*
X91278086Y-147019041D01*
X90435000Y-147019041D01*
X90435000Y-146320959D01*
X91278086Y-146320959D01*
X91399371Y-146543000D01*
X92543000Y-146543000D01*
X92543000Y-145400085D01*
X92797000Y-145400085D01*
X92797000Y-146543000D01*
X92817000Y-146543000D01*
X92817000Y-146797000D01*
X92797000Y-146797000D01*
X92797000Y-147939915D01*
X93019039Y-148061904D01*
X93407423Y-147901041D01*
X93822389Y-147525134D01*
X93925014Y-147308297D01*
X94195302Y-147712811D01*
X94660849Y-148023880D01*
X95210000Y-148133113D01*
X95759151Y-148023880D01*
X96224698Y-147712811D01*
X96480000Y-147330725D01*
X96735302Y-147712811D01*
X97200849Y-148023880D01*
X97750000Y-148133113D01*
X98299151Y-148023880D01*
X98764698Y-147712811D01*
X99075767Y-147247264D01*
X99185000Y-146698113D01*
X99185000Y-146641887D01*
X99075767Y-146092736D01*
X98764698Y-145627189D01*
X98299151Y-145316120D01*
X97750000Y-145206887D01*
X97200849Y-145316120D01*
X96735302Y-145627189D01*
X96480000Y-146009275D01*
X96224698Y-145627189D01*
X95759151Y-145316120D01*
X95210000Y-145206887D01*
X94660849Y-145316120D01*
X94195302Y-145627189D01*
X93925014Y-146031703D01*
X93822389Y-145814866D01*
X93407423Y-145438959D01*
X93019039Y-145278096D01*
X92797000Y-145400085D01*
X92543000Y-145400085D01*
X92320961Y-145278096D01*
X91932577Y-145438959D01*
X91517611Y-145814866D01*
X91278086Y-146320959D01*
X90435000Y-146320959D01*
X90435000Y-145844606D01*
X92352606Y-143927000D01*
X100200000Y-143927000D01*
X100249410Y-143916994D01*
X100289803Y-143889803D01*
X102289803Y-141889803D01*
X102317666Y-141847789D01*
X102327000Y-141800000D01*
X102327000Y-130398060D01*
X102989652Y-130398060D01*
X103295012Y-131137086D01*
X103859940Y-131703001D01*
X104598432Y-132009650D01*
X105398060Y-132010348D01*
X106137086Y-131704988D01*
X106703001Y-131140060D01*
X107001996Y-130420000D01*
X108372560Y-130420000D01*
X108372560Y-132120000D01*
X108416838Y-132355317D01*
X108555910Y-132571441D01*
X108768110Y-132716431D01*
X109020000Y-132767440D01*
X110720000Y-132767440D01*
X110955317Y-132723162D01*
X111171441Y-132584090D01*
X111316431Y-132371890D01*
X111330086Y-132304459D01*
X111359946Y-132349147D01*
X111841715Y-132671054D01*
X112410000Y-132784093D01*
X112978285Y-132671054D01*
X113460054Y-132349147D01*
X113680000Y-132019974D01*
X113899946Y-132349147D01*
X114381715Y-132671054D01*
X114950000Y-132784093D01*
X115518285Y-132671054D01*
X116000054Y-132349147D01*
X116220000Y-132019974D01*
X116439946Y-132349147D01*
X116921715Y-132671054D01*
X117490000Y-132784093D01*
X118058285Y-132671054D01*
X118540054Y-132349147D01*
X118767702Y-132008447D01*
X118834817Y-132151358D01*
X119263076Y-132541645D01*
X119673110Y-132711476D01*
X119903000Y-132590155D01*
X119903000Y-131397000D01*
X119883000Y-131397000D01*
X119883000Y-131143000D01*
X119903000Y-131143000D01*
X119903000Y-131123000D01*
X120157000Y-131123000D01*
X120157000Y-131143000D01*
X120177000Y-131143000D01*
X120177000Y-131397000D01*
X120157000Y-131397000D01*
X120157000Y-132590155D01*
X120386890Y-132711476D01*
X120796924Y-132541645D01*
X121225183Y-132151358D01*
X121292298Y-132008447D01*
X121519946Y-132349147D01*
X122001715Y-132671054D01*
X122570000Y-132784093D01*
X123138285Y-132671054D01*
X123620054Y-132349147D01*
X123840000Y-132019974D01*
X124059946Y-132349147D01*
X124541715Y-132671054D01*
X125110000Y-132784093D01*
X125678285Y-132671054D01*
X126160054Y-132349147D01*
X126380000Y-132019974D01*
X126599946Y-132349147D01*
X127081715Y-132671054D01*
X127650000Y-132784093D01*
X128218285Y-132671054D01*
X128700054Y-132349147D01*
X128920000Y-132019974D01*
X129139946Y-132349147D01*
X129621715Y-132671054D01*
X130190000Y-132784093D01*
X130758285Y-132671054D01*
X131240054Y-132349147D01*
X131460000Y-132019974D01*
X131679946Y-132349147D01*
X132161715Y-132671054D01*
X132730000Y-132784093D01*
X133298285Y-132671054D01*
X133780054Y-132349147D01*
X134000000Y-132019974D01*
X134219946Y-132349147D01*
X134701715Y-132671054D01*
X135270000Y-132784093D01*
X135838285Y-132671054D01*
X136320054Y-132349147D01*
X136540000Y-132019974D01*
X136759946Y-132349147D01*
X137241715Y-132671054D01*
X137810000Y-132784093D01*
X138378285Y-132671054D01*
X138860054Y-132349147D01*
X139087702Y-132008447D01*
X139154817Y-132151358D01*
X139583076Y-132541645D01*
X139993110Y-132711476D01*
X140223000Y-132590155D01*
X140223000Y-131397000D01*
X140203000Y-131397000D01*
X140203000Y-131143000D01*
X140223000Y-131143000D01*
X140223000Y-131123000D01*
X140477000Y-131123000D01*
X140477000Y-131143000D01*
X140497000Y-131143000D01*
X140497000Y-131397000D01*
X140477000Y-131397000D01*
X140477000Y-132590155D01*
X140706890Y-132711476D01*
X141116924Y-132541645D01*
X141545183Y-132151358D01*
X141612298Y-132008447D01*
X141839946Y-132349147D01*
X142321715Y-132671054D01*
X142890000Y-132784093D01*
X143458285Y-132671054D01*
X143940054Y-132349147D01*
X144160000Y-132019974D01*
X144379946Y-132349147D01*
X144861715Y-132671054D01*
X145430000Y-132784093D01*
X145998285Y-132671054D01*
X146480054Y-132349147D01*
X146700000Y-132019974D01*
X146919946Y-132349147D01*
X147401715Y-132671054D01*
X147970000Y-132784093D01*
X148538285Y-132671054D01*
X149020054Y-132349147D01*
X149240000Y-132019974D01*
X149459946Y-132349147D01*
X149941715Y-132671054D01*
X150510000Y-132784093D01*
X151078285Y-132671054D01*
X151560054Y-132349147D01*
X151780000Y-132019974D01*
X151999946Y-132349147D01*
X152481715Y-132671054D01*
X153050000Y-132784093D01*
X153618285Y-132671054D01*
X154100054Y-132349147D01*
X154320000Y-132019974D01*
X154539946Y-132349147D01*
X155021715Y-132671054D01*
X155590000Y-132784093D01*
X156158285Y-132671054D01*
X156640054Y-132349147D01*
X156867702Y-132008447D01*
X156934817Y-132151358D01*
X157363076Y-132541645D01*
X157773110Y-132711476D01*
X158003000Y-132590155D01*
X158003000Y-131397000D01*
X158257000Y-131397000D01*
X158257000Y-132590155D01*
X158486890Y-132711476D01*
X158896924Y-132541645D01*
X159325183Y-132151358D01*
X159571486Y-131626892D01*
X159450819Y-131397000D01*
X158257000Y-131397000D01*
X158003000Y-131397000D01*
X157983000Y-131397000D01*
X157983000Y-131143000D01*
X158003000Y-131143000D01*
X158003000Y-131123000D01*
X158257000Y-131123000D01*
X158257000Y-131143000D01*
X159450819Y-131143000D01*
X159571486Y-130913108D01*
X159329606Y-130398060D01*
X160989652Y-130398060D01*
X161295012Y-131137086D01*
X161859940Y-131703001D01*
X162598432Y-132009650D01*
X163398060Y-132010348D01*
X164137086Y-131704988D01*
X164703001Y-131140060D01*
X165009650Y-130401568D01*
X165010348Y-129601940D01*
X164704988Y-128862914D01*
X164140060Y-128296999D01*
X163401568Y-127990350D01*
X162601940Y-127989652D01*
X161862914Y-128295012D01*
X161296999Y-128859940D01*
X160990350Y-129598432D01*
X160989652Y-130398060D01*
X159329606Y-130398060D01*
X159325183Y-130388642D01*
X158896924Y-129998355D01*
X158896899Y-129998345D01*
X159180054Y-129809147D01*
X159501961Y-129327378D01*
X159615000Y-128759093D01*
X159615000Y-128700907D01*
X159501961Y-128132622D01*
X159180054Y-127650853D01*
X158698285Y-127328946D01*
X158130000Y-127215907D01*
X157561715Y-127328946D01*
X157079946Y-127650853D01*
X156860000Y-127980026D01*
X156640054Y-127650853D01*
X156158285Y-127328946D01*
X155590000Y-127215907D01*
X155021715Y-127328946D01*
X154539946Y-127650853D01*
X154320000Y-127980026D01*
X154100054Y-127650853D01*
X153618285Y-127328946D01*
X153050000Y-127215907D01*
X152481715Y-127328946D01*
X151999946Y-127650853D01*
X151772298Y-127991553D01*
X151705183Y-127848642D01*
X151276924Y-127458355D01*
X150866890Y-127288524D01*
X150637000Y-127409845D01*
X150637000Y-128603000D01*
X150657000Y-128603000D01*
X150657000Y-128857000D01*
X150637000Y-128857000D01*
X150637000Y-128877000D01*
X150383000Y-128877000D01*
X150383000Y-128857000D01*
X150363000Y-128857000D01*
X150363000Y-128603000D01*
X150383000Y-128603000D01*
X150383000Y-127409845D01*
X150153110Y-127288524D01*
X149743076Y-127458355D01*
X149314817Y-127848642D01*
X149247702Y-127991553D01*
X149020054Y-127650853D01*
X148538285Y-127328946D01*
X147970000Y-127215907D01*
X147401715Y-127328946D01*
X146919946Y-127650853D01*
X146692298Y-127991553D01*
X146625183Y-127848642D01*
X146196924Y-127458355D01*
X145786890Y-127288524D01*
X145557000Y-127409845D01*
X145557000Y-128603000D01*
X145577000Y-128603000D01*
X145577000Y-128857000D01*
X145557000Y-128857000D01*
X145557000Y-128877000D01*
X145303000Y-128877000D01*
X145303000Y-128857000D01*
X145283000Y-128857000D01*
X145283000Y-128603000D01*
X145303000Y-128603000D01*
X145303000Y-127409845D01*
X145073110Y-127288524D01*
X144663076Y-127458355D01*
X144234817Y-127848642D01*
X144167702Y-127991553D01*
X143940054Y-127650853D01*
X143458285Y-127328946D01*
X142890000Y-127215907D01*
X142321715Y-127328946D01*
X141839946Y-127650853D01*
X141620000Y-127980026D01*
X141400054Y-127650853D01*
X140918285Y-127328946D01*
X140350000Y-127215907D01*
X139781715Y-127328946D01*
X139299946Y-127650853D01*
X139080000Y-127980026D01*
X138860054Y-127650853D01*
X138378285Y-127328946D01*
X137810000Y-127215907D01*
X137241715Y-127328946D01*
X136759946Y-127650853D01*
X136540000Y-127980026D01*
X136320054Y-127650853D01*
X135838285Y-127328946D01*
X135270000Y-127215907D01*
X134701715Y-127328946D01*
X134219946Y-127650853D01*
X133992298Y-127991553D01*
X133925183Y-127848642D01*
X133496924Y-127458355D01*
X133086890Y-127288524D01*
X132857000Y-127409845D01*
X132857000Y-128603000D01*
X132877000Y-128603000D01*
X132877000Y-128857000D01*
X132857000Y-128857000D01*
X132857000Y-128877000D01*
X132603000Y-128877000D01*
X132603000Y-128857000D01*
X132583000Y-128857000D01*
X132583000Y-128603000D01*
X132603000Y-128603000D01*
X132603000Y-127409845D01*
X132373110Y-127288524D01*
X131963076Y-127458355D01*
X131534817Y-127848642D01*
X131467702Y-127991553D01*
X131240054Y-127650853D01*
X130758285Y-127328946D01*
X130190000Y-127215907D01*
X129621715Y-127328946D01*
X129139946Y-127650853D01*
X128920000Y-127980026D01*
X128700054Y-127650853D01*
X128218285Y-127328946D01*
X127650000Y-127215907D01*
X127081715Y-127328946D01*
X126599946Y-127650853D01*
X126372298Y-127991553D01*
X126305183Y-127848642D01*
X125876924Y-127458355D01*
X125466890Y-127288524D01*
X125237000Y-127409845D01*
X125237000Y-128603000D01*
X125257000Y-128603000D01*
X125257000Y-128857000D01*
X125237000Y-128857000D01*
X125237000Y-128877000D01*
X124983000Y-128877000D01*
X124983000Y-128857000D01*
X124963000Y-128857000D01*
X124963000Y-128603000D01*
X124983000Y-128603000D01*
X124983000Y-127409845D01*
X124753110Y-127288524D01*
X124343076Y-127458355D01*
X123914817Y-127848642D01*
X123847702Y-127991553D01*
X123620054Y-127650853D01*
X123138285Y-127328946D01*
X122570000Y-127215907D01*
X122001715Y-127328946D01*
X121519946Y-127650853D01*
X121300000Y-127980026D01*
X121080054Y-127650853D01*
X120598285Y-127328946D01*
X120030000Y-127215907D01*
X119461715Y-127328946D01*
X118979946Y-127650853D01*
X118760000Y-127980026D01*
X118540054Y-127650853D01*
X118058285Y-127328946D01*
X117490000Y-127215907D01*
X116921715Y-127328946D01*
X116439946Y-127650853D01*
X116212298Y-127991553D01*
X116145183Y-127848642D01*
X115716924Y-127458355D01*
X115306890Y-127288524D01*
X115077000Y-127409845D01*
X115077000Y-128603000D01*
X115097000Y-128603000D01*
X115097000Y-128857000D01*
X115077000Y-128857000D01*
X115077000Y-128877000D01*
X114823000Y-128877000D01*
X114823000Y-128857000D01*
X114803000Y-128857000D01*
X114803000Y-128603000D01*
X114823000Y-128603000D01*
X114823000Y-127409845D01*
X114593110Y-127288524D01*
X114183076Y-127458355D01*
X113754817Y-127848642D01*
X113687702Y-127991553D01*
X113460054Y-127650853D01*
X112978285Y-127328946D01*
X112410000Y-127215907D01*
X111841715Y-127328946D01*
X111359946Y-127650853D01*
X111140000Y-127980026D01*
X110920054Y-127650853D01*
X110438285Y-127328946D01*
X109870000Y-127215907D01*
X109301715Y-127328946D01*
X108819946Y-127650853D01*
X108498039Y-128132622D01*
X108385000Y-128700907D01*
X108385000Y-128759093D01*
X108498039Y-129327378D01*
X108819946Y-129809147D01*
X108821179Y-129809971D01*
X108784683Y-129816838D01*
X108568559Y-129955910D01*
X108423569Y-130168110D01*
X108372560Y-130420000D01*
X107001996Y-130420000D01*
X107009650Y-130401568D01*
X107010348Y-129601940D01*
X106704988Y-128862914D01*
X106140060Y-128296999D01*
X105401568Y-127990350D01*
X104601940Y-127989652D01*
X103862914Y-128295012D01*
X103296999Y-128859940D01*
X102990350Y-129598432D01*
X102989652Y-130398060D01*
X102327000Y-130398060D01*
X102327000Y-127052606D01*
X104152606Y-125227000D01*
X123000000Y-125227000D01*
X123049410Y-125216994D01*
X123089803Y-125189803D01*
X125706301Y-122573305D01*
X130814674Y-122573305D01*
X131101043Y-123266372D01*
X131630839Y-123797093D01*
X132323405Y-124084672D01*
X133073305Y-124085326D01*
X133468858Y-123921887D01*
X147015000Y-123921887D01*
X147015000Y-123978113D01*
X147124233Y-124527264D01*
X147435302Y-124992811D01*
X147900849Y-125303880D01*
X148450000Y-125413113D01*
X148999151Y-125303880D01*
X149464698Y-124992811D01*
X149734986Y-124588297D01*
X149837611Y-124805134D01*
X150252577Y-125181041D01*
X150640961Y-125341904D01*
X150863000Y-125219915D01*
X150863000Y-124077000D01*
X150843000Y-124077000D01*
X150843000Y-123823000D01*
X150863000Y-123823000D01*
X150863000Y-122680085D01*
X151117000Y-122680085D01*
X151117000Y-123823000D01*
X151137000Y-123823000D01*
X151137000Y-124077000D01*
X151117000Y-124077000D01*
X151117000Y-125219915D01*
X151339039Y-125341904D01*
X151727423Y-125181041D01*
X152142389Y-124805134D01*
X152245014Y-124588297D01*
X152515302Y-124992811D01*
X152980849Y-125303880D01*
X153530000Y-125413113D01*
X154079151Y-125303880D01*
X154544698Y-124992811D01*
X154855767Y-124527264D01*
X154965000Y-123978113D01*
X154965000Y-123921887D01*
X154855767Y-123372736D01*
X154544698Y-122907189D01*
X154079151Y-122596120D01*
X153530000Y-122486887D01*
X152980849Y-122596120D01*
X152515302Y-122907189D01*
X152245014Y-123311703D01*
X152142389Y-123094866D01*
X151727423Y-122718959D01*
X151339039Y-122558096D01*
X151117000Y-122680085D01*
X150863000Y-122680085D01*
X150640961Y-122558096D01*
X150252577Y-122718959D01*
X149837611Y-123094866D01*
X149734986Y-123311703D01*
X149464698Y-122907189D01*
X148999151Y-122596120D01*
X148450000Y-122486887D01*
X147900849Y-122596120D01*
X147435302Y-122907189D01*
X147124233Y-123372736D01*
X147015000Y-123921887D01*
X133468858Y-123921887D01*
X133766372Y-123798957D01*
X134297093Y-123269161D01*
X134584672Y-122576595D01*
X134585326Y-121826695D01*
X134298957Y-121133628D01*
X133769161Y-120602907D01*
X133076595Y-120315328D01*
X132326695Y-120314674D01*
X131633628Y-120601043D01*
X131102907Y-121130839D01*
X130815328Y-121823405D01*
X130814674Y-122573305D01*
X125706301Y-122573305D01*
X128189803Y-120089803D01*
X128217666Y-120047789D01*
X128227000Y-120000000D01*
X128227000Y-118378132D01*
X129910132Y-116695000D01*
X137373000Y-116695000D01*
X137373000Y-117664261D01*
X137315258Y-117803319D01*
X137314743Y-118394089D01*
X137373000Y-118535082D01*
X137373000Y-120700000D01*
X137381685Y-120746159D01*
X137408965Y-120788553D01*
X137450590Y-120816994D01*
X137500000Y-120827000D01*
X140676021Y-120827000D01*
X140961325Y-121017633D01*
X141300000Y-121085000D01*
X148799995Y-121085000D01*
X148800000Y-121085001D01*
X149082484Y-121028810D01*
X149138675Y-121017633D01*
X149425790Y-120825790D01*
X149425791Y-120825789D01*
X151615787Y-118635792D01*
X151615790Y-118635790D01*
X151807633Y-118348675D01*
X151857098Y-118100000D01*
X151875001Y-118010000D01*
X151875000Y-118009995D01*
X151875000Y-117459473D01*
X152004698Y-117372811D01*
X152260000Y-116990725D01*
X152515302Y-117372811D01*
X152980849Y-117683880D01*
X153530000Y-117793113D01*
X154079151Y-117683880D01*
X154544698Y-117372811D01*
X154855767Y-116907264D01*
X154965000Y-116358113D01*
X154965000Y-116301887D01*
X154855767Y-115752736D01*
X154544698Y-115287189D01*
X154541422Y-115285000D01*
X158233420Y-115285000D01*
X160215000Y-117266579D01*
X160215000Y-120579724D01*
X160138355Y-120656235D01*
X159965197Y-121073244D01*
X159964803Y-121524775D01*
X160137233Y-121942086D01*
X160456235Y-122261645D01*
X160873244Y-122434803D01*
X161324775Y-122435197D01*
X161742086Y-122262767D01*
X162061645Y-121943765D01*
X162234803Y-121526756D01*
X162235197Y-121075225D01*
X162062767Y-120657914D01*
X161985000Y-120580011D01*
X161985000Y-116900005D01*
X161985001Y-116900000D01*
X161917633Y-116561326D01*
X161917633Y-116561325D01*
X161725790Y-116274210D01*
X161725787Y-116274208D01*
X159225790Y-113774210D01*
X159219362Y-113769915D01*
X158938675Y-113582367D01*
X158882484Y-113571190D01*
X158600000Y-113514999D01*
X158599995Y-113515000D01*
X154563281Y-113515000D01*
X154855767Y-113077264D01*
X154965000Y-112528113D01*
X154965000Y-112471887D01*
X154855767Y-111922736D01*
X154544698Y-111457189D01*
X154079151Y-111146120D01*
X153530000Y-111036887D01*
X152980849Y-111146120D01*
X152515302Y-111457189D01*
X152245014Y-111861703D01*
X152142389Y-111644866D01*
X151727423Y-111268959D01*
X151339039Y-111108096D01*
X151117000Y-111230085D01*
X151117000Y-112373000D01*
X151137000Y-112373000D01*
X151137000Y-112627000D01*
X151117000Y-112627000D01*
X151117000Y-112647000D01*
X150863000Y-112647000D01*
X150863000Y-112627000D01*
X150843000Y-112627000D01*
X150843000Y-112373000D01*
X150863000Y-112373000D01*
X150863000Y-111230085D01*
X150640961Y-111108096D01*
X150252577Y-111268959D01*
X149837611Y-111644866D01*
X149734986Y-111861703D01*
X149464698Y-111457189D01*
X148999151Y-111146120D01*
X148450000Y-111036887D01*
X147900849Y-111146120D01*
X147435302Y-111457189D01*
X147124233Y-111922736D01*
X147015000Y-112471887D01*
X147015000Y-112528113D01*
X147124233Y-113077264D01*
X147435302Y-113542811D01*
X147735949Y-113743697D01*
X147788647Y-113822566D01*
X147824210Y-113875790D01*
X148906015Y-114957594D01*
X148450000Y-114866887D01*
X147900849Y-114976120D01*
X147435302Y-115287189D01*
X147124233Y-115752736D01*
X147015000Y-116301887D01*
X147015000Y-116358113D01*
X147124233Y-116907264D01*
X147435302Y-117372811D01*
X147900849Y-117683880D01*
X148450000Y-117793113D01*
X148999151Y-117683880D01*
X149464698Y-117372811D01*
X149720000Y-116990725D01*
X149975302Y-117372811D01*
X150105000Y-117459473D01*
X150105000Y-117643421D01*
X148433420Y-119315000D01*
X145327000Y-119315000D01*
X145327000Y-118487574D01*
X145364742Y-118396681D01*
X145365257Y-117805911D01*
X145327000Y-117713322D01*
X145327000Y-115947574D01*
X145364742Y-115856681D01*
X145365257Y-115265911D01*
X145327000Y-115173322D01*
X145327000Y-113407574D01*
X145364742Y-113316681D01*
X145365257Y-112725911D01*
X145327000Y-112633322D01*
X145327000Y-110867574D01*
X145364742Y-110776681D01*
X145365257Y-110185911D01*
X145327000Y-110093322D01*
X145327000Y-107699645D01*
X163510373Y-107699645D01*
X163629193Y-107953000D01*
X164973000Y-107953000D01*
X164973000Y-106609735D01*
X165227000Y-106609735D01*
X165227000Y-107953000D01*
X166570807Y-107953000D01*
X166689627Y-107699645D01*
X166423068Y-107120274D01*
X165955084Y-106687013D01*
X165480354Y-106490381D01*
X165227000Y-106609735D01*
X164973000Y-106609735D01*
X164719646Y-106490381D01*
X164244916Y-106687013D01*
X163776932Y-107120274D01*
X163510373Y-107699645D01*
X145327000Y-107699645D01*
X145327000Y-105787574D01*
X145364742Y-105696681D01*
X145365257Y-105105911D01*
X145327000Y-105013322D01*
X145327000Y-103885000D01*
X147403356Y-103885000D01*
X147124233Y-104302736D01*
X147015000Y-104851887D01*
X147015000Y-104908113D01*
X147124233Y-105457264D01*
X147435302Y-105922811D01*
X147900849Y-106233880D01*
X148450000Y-106343113D01*
X148999151Y-106233880D01*
X149464698Y-105922811D01*
X149720000Y-105540725D01*
X149975302Y-105922811D01*
X150440849Y-106233880D01*
X150990000Y-106343113D01*
X151539151Y-106233880D01*
X152004698Y-105922811D01*
X152260000Y-105540725D01*
X152515302Y-105922811D01*
X152980849Y-106233880D01*
X153530000Y-106343113D01*
X154079151Y-106233880D01*
X154544698Y-105922811D01*
X154855767Y-105457264D01*
X154965000Y-104908113D01*
X154965000Y-104851887D01*
X154855767Y-104302736D01*
X154576644Y-103885000D01*
X166333420Y-103885000D01*
X166915000Y-104466579D01*
X166915000Y-114633421D01*
X166746930Y-114801490D01*
X166746930Y-114700510D01*
X166702652Y-114465193D01*
X166563580Y-114249069D01*
X166397527Y-114135610D01*
X166610072Y-113817514D01*
X166734490Y-113192022D01*
X166734490Y-113127978D01*
X166610072Y-112502486D01*
X166255759Y-111972219D01*
X166132710Y-111890000D01*
X166255759Y-111807781D01*
X166610072Y-111277514D01*
X166734490Y-110652022D01*
X166734490Y-110587978D01*
X166610072Y-109962486D01*
X166255759Y-109432219D01*
X166106700Y-109332621D01*
X166423068Y-109039726D01*
X166689627Y-108460355D01*
X166570807Y-108207000D01*
X165227000Y-108207000D01*
X165227000Y-108227000D01*
X164973000Y-108227000D01*
X164973000Y-108207000D01*
X163629193Y-108207000D01*
X163510373Y-108460355D01*
X163776932Y-109039726D01*
X164093300Y-109332621D01*
X163944241Y-109432219D01*
X163589928Y-109962486D01*
X163465510Y-110587978D01*
X163465510Y-110652022D01*
X163589928Y-111277514D01*
X163944241Y-111807781D01*
X164067290Y-111890000D01*
X163944241Y-111972219D01*
X163589928Y-112502486D01*
X163465510Y-113127978D01*
X163465510Y-113192022D01*
X163589928Y-113817514D01*
X163803453Y-114137077D01*
X163649069Y-114236420D01*
X163504079Y-114448620D01*
X163453070Y-114700510D01*
X163453070Y-116699490D01*
X163497348Y-116934807D01*
X163636420Y-117150931D01*
X163848620Y-117295921D01*
X164100510Y-117346930D01*
X166099490Y-117346930D01*
X166334807Y-117302652D01*
X166550931Y-117163580D01*
X166695921Y-116951380D01*
X166746930Y-116699490D01*
X166746930Y-116585000D01*
X167099995Y-116585000D01*
X167100000Y-116585001D01*
X167382484Y-116528810D01*
X167438675Y-116517633D01*
X167725790Y-116325790D01*
X168425787Y-115625792D01*
X168425790Y-115625790D01*
X168617633Y-115338675D01*
X168685000Y-115000000D01*
X168685000Y-104100005D01*
X168685001Y-104100000D01*
X168617633Y-103761326D01*
X168617633Y-103761325D01*
X168425790Y-103474210D01*
X168425787Y-103474208D01*
X167325790Y-102374210D01*
X167038675Y-102182367D01*
X166982484Y-102171190D01*
X166700000Y-102114999D01*
X166699995Y-102115000D01*
X151900000Y-102115000D01*
X151561325Y-102182367D01*
X151274210Y-102374210D01*
X151274208Y-102374213D01*
X151050000Y-102598421D01*
X150825790Y-102374210D01*
X150538675Y-102182367D01*
X150482484Y-102171190D01*
X150200000Y-102114999D01*
X150199995Y-102115000D01*
X141200005Y-102115000D01*
X141200000Y-102114999D01*
X140861326Y-102182366D01*
X140861324Y-102182367D01*
X140861325Y-102182367D01*
X140574210Y-102374210D01*
X140574208Y-102374213D01*
X140175421Y-102773000D01*
X137500000Y-102773000D01*
X137453841Y-102781685D01*
X137411447Y-102808965D01*
X137383006Y-102850590D01*
X137373000Y-102900000D01*
X137373000Y-104964261D01*
X137315258Y-105103319D01*
X137314743Y-105694089D01*
X137373000Y-105835082D01*
X137373000Y-110044261D01*
X137315258Y-110183319D01*
X137314743Y-110774089D01*
X137373000Y-110915082D01*
X137373000Y-111885000D01*
X128227000Y-111885000D01*
X128227000Y-108133320D01*
X131546285Y-108133320D01*
X131675533Y-108426123D01*
X132375806Y-108694388D01*
X133125435Y-108674250D01*
X133724467Y-108426123D01*
X133853715Y-108133320D01*
X132700000Y-106979605D01*
X131546285Y-108133320D01*
X128227000Y-108133320D01*
X128227000Y-106475806D01*
X130805612Y-106475806D01*
X130825750Y-107225435D01*
X131073877Y-107824467D01*
X131366680Y-107953715D01*
X132520395Y-106800000D01*
X132879605Y-106800000D01*
X134033320Y-107953715D01*
X134326123Y-107824467D01*
X134594388Y-107124194D01*
X134574250Y-106374565D01*
X134326123Y-105775533D01*
X134033320Y-105646285D01*
X132879605Y-106800000D01*
X132520395Y-106800000D01*
X131366680Y-105646285D01*
X131073877Y-105775533D01*
X130805612Y-106475806D01*
X128227000Y-106475806D01*
X128227000Y-105466680D01*
X131546285Y-105466680D01*
X132700000Y-106620395D01*
X133853715Y-105466680D01*
X133724467Y-105173877D01*
X133024194Y-104905612D01*
X132274565Y-104925750D01*
X131675533Y-105173877D01*
X131546285Y-105466680D01*
X128227000Y-105466680D01*
X128227000Y-98898121D01*
X161281484Y-98898121D01*
X161506154Y-99272168D01*
X162489388Y-99670880D01*
X163550357Y-99662975D01*
X164493846Y-99272168D01*
X164718516Y-98898121D01*
X163000000Y-97179605D01*
X161281484Y-98898121D01*
X128227000Y-98898121D01*
X128227000Y-96489388D01*
X160329120Y-96489388D01*
X160337025Y-97550357D01*
X160727832Y-98493846D01*
X161101879Y-98718516D01*
X162820395Y-97000000D01*
X163179605Y-97000000D01*
X164898121Y-98718516D01*
X165272168Y-98493846D01*
X165670880Y-97510612D01*
X165662975Y-96449643D01*
X165272168Y-95506154D01*
X164898121Y-95281484D01*
X163179605Y-97000000D01*
X162820395Y-97000000D01*
X161101879Y-95281484D01*
X160727832Y-95506154D01*
X160329120Y-96489388D01*
X128227000Y-96489388D01*
X128227000Y-96052606D01*
X129177727Y-95101879D01*
X161281484Y-95101879D01*
X163000000Y-96820395D01*
X164718516Y-95101879D01*
X164493846Y-94727832D01*
X163510612Y-94329120D01*
X162449643Y-94337025D01*
X161506154Y-94727832D01*
X161281484Y-95101879D01*
X129177727Y-95101879D01*
X130444606Y-93835000D01*
X168965000Y-93835000D01*
X168965000Y-156865000D01*
M02*
