M48
;DRILL file {KiCad 4.0.7} date Tuesday, 06 '06e' March '06e' 2018, 22:38:44
;FORMAT={-:-/ absolute / metric / decimal}
FMAT,2
METRIC,TZ
T1C0.500
T2C0.800
T3C1.000
T4C1.097
T5C1.100
T6C1.200
T7C1.501
T8C2.750
%
G90
G05
M71
T1
X161.1Y-121.3
T2
X92.67Y-139.05
X92.67Y-146.67
X95.21Y-139.05
X95.21Y-146.67
X97.75Y-139.05
X97.75Y-146.67
X148.45Y-104.88
X148.45Y-112.5
X148.45Y-116.33
X148.45Y-123.95
X150.99Y-104.88
X150.99Y-112.5
X150.99Y-116.33
X150.99Y-123.95
X153.53Y-104.88
X153.53Y-112.5
X153.53Y-116.33
X153.53Y-123.95
T3
X103.3Y-112.
X103.3Y-117.
X109.87Y-128.73
X109.87Y-131.27
X112.41Y-128.73
X112.41Y-131.27
X114.95Y-128.73
X114.95Y-131.27
X117.49Y-128.73
X117.49Y-131.27
X120.03Y-128.73
X120.03Y-131.27
X122.57Y-128.73
X122.57Y-131.27
X125.11Y-128.73
X125.11Y-131.27
X127.65Y-128.73
X127.65Y-131.27
X130.19Y-128.73
X130.19Y-131.27
X132.7Y-106.8
X132.7Y-122.2
X132.73Y-128.73
X132.73Y-131.27
X135.27Y-128.73
X135.27Y-131.27
X137.81Y-128.73
X137.81Y-131.27
X140.35Y-128.73
X140.35Y-131.27
X142.89Y-128.73
X142.89Y-131.27
X145.43Y-128.73
X145.43Y-131.27
X147.97Y-128.73
X147.97Y-131.27
X150.51Y-128.73
X150.51Y-131.27
X153.05Y-128.73
X153.05Y-131.27
X155.59Y-128.73
X155.59Y-131.27
X158.13Y-128.73
X158.13Y-131.27
T4
X93.7Y-121.3
X93.7Y-123.84
X93.7Y-130.9
X93.7Y-133.44
X165.1Y-108.08
X165.1Y-110.62
X165.1Y-113.16
X165.1Y-115.7
T5
X138.8Y-105.4
X138.8Y-110.48
X138.8Y-113.02
X138.8Y-115.56
X138.8Y-118.1
X143.88Y-105.4
X143.88Y-110.48
X143.88Y-113.02
X143.88Y-115.56
X143.88Y-118.1
T6
X95.Y-108.5
X95.Y-112.
T7
X100.699Y-98.6
X122.701Y-98.6
T8
X94.Y-97.
X94.Y-153.
X105.Y-130.
X105.Y-153.
X163.Y-97.
X163.Y-130.
X163.Y-153.
T0
M30
